<svg xmlns="http://www.w3.org/2000/svg" viewBox="0 0 1002 591">
  <path fill="#000" fill-rule="evenodd" d="M997.628 570.427c-.916-.148-3.952-.48-8.704-.864-23.263-1.872-48.682-6.615-63.8-45.802-4.85-12.552-195.86-507.676-197.114-510.977-1.436-3.78-5.02-3.68-6.277.124-1.074 3.256-51.7 153.336-51.7 153.336l131.762 362.585c2.31 6.732 4.56 13.395 4.56 18.516 0 6.48-4.37 13.91-11.745 17.393-5.82 2.747-16.897 4.207-25.423 4.92-2.685.222-4.98.453-7.405.806-2.668.39-3.742 2.68-3.742 4.7 0 2.468 1.852 4.253 4.56 4.253h235.324c1.976 0 4.07-1.834 4.07-3.97 0-3.64-2.193-4.662-4.366-5.02zM466.77 34.547c6.923-4.072 15.99-6.02 34.335-7.01 2.594-.14 4.617-1.573 4.617-4.19 0-2.762-2.133-4.284-4.133-4.284l-111.273-.038c-2.6 0-5.608.783-5.608 4.27 0 1.768.732 3.757 4.15 4.21 2.585.344 8.5.71 15.1 1.172 15.913 1.116 22.028 2.773 26.597 9.35 4.293 6.182 1.988 17.162-2.848 30.22-4.82 13.014-132.898 341.367-132.898 341.367h-.514C292.753 404.81 191.293 85.81 186.894 72.036c-4.4-13.775-6.166-23.475-3.897-28.797 4.143-9.718 12.396-13.13 32.978-14.55 2.826-.193 4.138-.298 6.715-.52 2.707-.23 4.244-2.61 3.663-5.513-.607-3.027-2.368-3.656-5.686-3.656l-214.303.015c-1.972 0-4.136 1.315-4.346 4.038-.168 2.155.843 3.368 2.14 3.958 1.258.572 5.023 1.06 12.083 1.562 15.685 1.108 20.75 2.442 26.55 5.213 11.762 5.625 19.815 20.7 23.832 32.73 4.017 12.026 170.48 512.5 171.006 514.027.807 2.34 4.193 2.424 5.203.05 1.03-2.42 207.367-520.32 210.328-527.538 2.543-6.196 6.634-14.402 13.612-18.507zm253.63 500.4c-4.546-1.415-7.376 1.413-10.71 9.297-3.868 9.143-12.208 11.62-20.227 11.62-14.998 0-30.095-17.178-41.31-34.662-.617-.96-6.982-10.944-16.548-25.955 24.346-33.835 38.225-73.442 44.59-99.592 2.196-9.017 5.434-22.645 10.284-28.302 6.72-7.837 14.065-10.1 24.674-11.16 4.603-.46 6.646-.684 8.372-1.19 2.397-.708 3.09-2.98 2.874-4.637-.33-2.494-2.1-3.59-3.983-3.59l-92.725-.017c-3.084 0-4.484 1.985-4.484 4.367 0 2.237 1.465 3.494 3.58 4.006 1.466.352 4.085.615 5.86.706 11.622.606 20.113 1.918 25.412 5.444 8.546 5.684 7.714 14.557 6.094 26.652-3.622 27.006-17.336 66.824-37.282 96.745-36.288-56.944-102.133-160.297-102.133-160.297s27.257-14.16 45.766-24.8c18.058-10.384 45.688-31.257 45.688-65.39 0-20.24-11.586-35.962-27.444-46.446-16.304-10.78-40.724-19.4-68.442-19.4-34.556 0-71.5 12.687-91.518 44.442-19.33 30.663-14.338 75.442 8.408 112.89 6.145 10.117 12.888 20.34 12.888 20.34-8.084 2.897-18.116 7.247-26.58 11.093-45.974 21.353-84.992 61.212-84.992 115.915 0 60.847 45.254 109.782 128.67 109.782 45.487 0 82.97-14.432 112.848-35.777 13.774 18.68 39.263 32.698 75.897 32.698 34.758 0 62.28-20.233 69.403-36.802 1.215-2.828.48-6.92-2.932-7.982zm-241.03-341.55c7.186-10.33 17.933-14.595 32.335-14.595 19.57 0 43.5 18.266 43.5 64.374 0 28.984-14.65 56.83-38.202 72.332 0 0-20.313-31.378-31.955-53.285-10.198-19.186-19.57-48.855-5.678-68.826zm-71.15 247.026c0-27.485 9.64-63.303 44.806-85.87l.042.066-.042-.067.108.167.24.37c76.697 118.308 80.97 125.113 118.255 182.336-16.392 10.887-34.566 17.426-52.737 17.426-62.12 0-110.672-57.64-110.672-114.43z"/>
</svg>
