<?xml version="1.0" encoding="UTF-8" standalone="no"?>
<svg width="1002px" height="591px" viewBox="0 0 1002 591" version="1.1" xmlns="http://www.w3.org/2000/svg" xmlns:xlink="http://www.w3.org/1999/xlink" xmlns:sketch="http://www.bohemiancoding.com/sketch/ns">
    <!-- Generator: Sketch 3.3.2 (12043) - http://www.bohemiancoding.com/sketch -->
    <title>Artboard</title>
    <desc>Created with Sketch.</desc>
    <defs></defs>
    <g id="Page-2" stroke="none" stroke-width="1" fill="none" fill-rule="evenodd" sketch:type="MSPage">
        <g id="Artboard" sketch:type="MSArtboardGroup" fill="#000000">
            <path d="M997.627802,570.426518 C996.711638,570.279213 993.675723,569.947777 988.924247,569.563348 C965.660873,567.691499 940.24182,562.948107 925.125119,523.76055 C920.27484,511.208208 729.265478,16.083681 728.009795,12.7827969 C726.574471,9.00227418 722.988858,9.10287255 721.733175,12.9067485 C720.658928,16.1627226 670.033695,166.242918 670.033695,166.242918 L801.795108,528.828193 C804.106175,535.5602 806.356166,542.223046 806.356166,547.343682 C806.356166,553.825092 801.984628,561.253204 794.60951,564.73732 C788.790972,567.484015 777.712576,568.944488 769.186864,569.655862 C766.502145,569.878616 764.208143,570.110351 761.782105,570.463344 C759.113554,570.852264 758.040205,573.141775 758.040205,575.162725 C758.040205,577.630978 759.892293,579.415701 762.601263,579.415701 L997.924208,579.415701 C999.900248,579.415701 1001.99305,577.582475 1001.99305,575.445658 C1001.99305,571.807051 999.801446,570.784001 997.627802,570.426518 Z M466.770194,34.547075 C473.69262,30.4746374 482.760844,28.5255439 501.104778,27.5375242 C503.698779,27.3983032 505.721525,25.9638782 505.721525,23.3465242 C505.721525,20.5845599 503.589198,19.0630096 501.588908,19.0630096 C499.585024,19.0630096 392.919313,19.0252852 390.317228,19.0252852 C387.716042,19.0252852 384.708869,19.8076171 384.708869,23.2944286 C384.708869,25.0629839 385.4418,27.0515981 388.860348,27.5060872 C391.445367,27.8491995 397.360911,28.215665 403.959086,28.6773397 C419.873389,29.7929037 425.988333,31.4500823 430.557475,38.0284972 C434.849972,44.2090097 432.545191,55.1886034 427.709284,68.2475296 C422.889544,81.2606475 294.811649,409.613733 294.811649,409.613733 L294.297879,409.613733 C292.752975,404.810161 191.29323,85.809131 186.893847,72.0361361 C182.493567,58.2613448 180.727706,48.5607875 182.997457,43.238954 C187.139954,33.5222291 195.392613,30.1090701 215.974861,28.6908127 C218.801495,28.4968015 220.112867,28.3917121 222.689802,28.1698568 C225.396976,27.9390195 226.933796,25.5614847 226.352661,22.6567067 C225.746376,19.6297736 223.985006,19.0010338 220.667056,19.0010338 C219.149099,19.0010338 7.32126286,19.0145068 6.36378193,19.0145068 C4.39223349,19.0145068 2.22847029,20.3303694 2.01829155,23.0528128 C1.8503282,25.2084922 2.86080291,26.4210619 4.15780335,27.0111791 C5.4161812,27.5824342 9.18053634,28.0710548 16.2412846,28.5722503 C31.9247504,29.6797306 36.9914951,31.0135572 42.7902727,33.7854016 C54.5521984,39.4099284 62.6045591,54.4862112 66.6222066,66.514004 C70.6389559,78.5408987 237.101417,579.015104 237.627762,580.542043 C238.435244,582.881854 241.820558,582.966284 242.831033,580.590546 C243.858574,578.17349 450.196613,60.2706176 453.157977,53.0535826 C455.700781,46.8578008 459.79208,38.6518479 466.770194,34.547075 Z M720.401145,534.945831 C715.854457,533.532065 713.02423,536.359598 709.691011,544.243995 C705.821566,553.38677 697.481782,555.864005 689.462654,555.864005 C674.465413,555.864005 659.367573,538.685935 648.152651,521.202477 C647.536486,520.2432 641.170945,510.257913 631.605117,495.247199 C655.950822,461.412014 669.829804,421.804998 676.196244,395.654811 C678.391444,386.637783 681.629454,373.010297 686.478835,367.352537 C693.199165,359.515744 700.544643,357.253179 711.154178,356.193303 C715.757452,355.731628 717.799958,355.508875 719.526298,355.00229 C721.922695,354.295407 722.617003,352.02386 722.399639,350.365783 C722.07,347.87238 720.299648,346.77478 718.417021,346.77478 C716.536191,346.77478 628.283575,346.758613 625.692269,346.758613 C622.607851,346.758613 621.208455,348.744532 621.208455,351.127456 C621.208455,353.363974 622.673419,354.621453 624.78868,355.132529 C626.253643,355.484623 628.872794,355.747796 630.649433,355.839412 C642.270341,356.445697 650.761024,357.757967 656.060402,361.284299 C664.605874,366.968107 663.774141,375.841422 662.153789,387.935682 C658.532248,414.941854 644.817636,454.759947 624.872212,484.680777 C588.584044,427.735811 522.738817,324.382661 522.738817,324.382661 C522.738817,324.382661 549.997383,310.22344 568.505687,299.582467 C586.563993,289.199278 614.194414,268.326014 614.194414,234.194424 C614.194414,213.953493 602.607637,198.230506 586.74992,187.746719 C570.445798,176.968322 546.026442,168.345604 518.307998,168.345604 C483.751559,168.345604 446.807705,181.034472 426.790425,212.789426 C407.460269,243.453067 412.452463,288.231917 435.197575,325.679661 C441.343058,335.796983 448.085843,346.020293 448.085843,346.020293 C440.002045,348.916987 429.970052,353.266968 421.507214,357.113059 C375.531962,378.465962 336.514165,418.325372 336.514165,473.027533 C336.514165,533.875177 381.768163,582.809998 465.184872,582.809998 C510.670605,582.809998 548.153379,568.377724 578.031994,547.032905 C591.805887,565.713664 617.294999,579.730969 653.928974,579.730969 C688.687508,579.730969 716.210145,559.497223 723.332869,542.928132 C724.548133,540.099701 723.811609,536.007503 720.401145,534.945831 Z M479.37014,193.397293 C486.555738,183.067996 497.302698,178.801547 511.705331,178.801547 C531.274409,178.801547 555.204247,197.068236 555.204247,243.176421 C555.204247,272.159531 540.556405,300.007316 517.002913,315.508447 C517.002913,315.508447 496.690126,284.129839 485.047661,262.222747 C474.850399,243.037201 465.477685,213.367866 479.37014,193.397293 L479.37014,193.397293 Z M408.221044,440.422883 C408.221044,412.93797 417.858727,377.120459 453.025942,354.55319 C453.025942,354.55319 453.043008,354.580136 453.068157,354.618759 L453.025942,354.55319 C453.06187,354.608879 453.0969,354.663669 453.133726,354.720255 C453.191211,354.808279 453.270252,354.931332 453.373545,355.090314 C530.070822,473.39849 534.34266,480.203251 571.628728,537.425761 C555.238379,548.31284 537.064205,554.851734 518.892726,554.851734 C456.772333,554.851734 408.221044,497.210663 408.221044,440.422883 L408.221044,440.422883 Z" id="Fill-1" sketch:type="MSShapeGroup"></path>
        </g>
    </g>
</svg>